<svg version="1.1" xmlns="http://www.w3.org/2000/svg" viewBox="0 0 63.8 63.8">
  <style type="text/css">
    .st0{fill:#FFF;}
  </style>
  <g>
    <path class="st0" d="M53.9,13.1c-1.1-3-3-5.7-5.4-7.9C44.7,1.9,39.9,0,34.9,0c-4.4,0-8.5,1.4-12,3.9c-1.7,1.2-3.1,2.7-4.4,4.4c-0.8-0.1-1.5-0.2-2.3-0.2c-4.3,0-8.4,1.7-11.5,4.8C1.7,15.9,0,20,0,24.3c0,4,1.5,7.9,4.2,10.9c2.2,2.4,4.9,4,8,4.8c1.3,4,5.1,6.8,9.5,6.8c5.5,0,10-4.5,10-10c0-0.3,0-0.6,0-1l14-7.4l-3.1-5.3l-13.4,7c-1.8-2.1-4.5-3.4-7.5-3.4c-4.3,0-8,2.8-9.4,6.6c-3.5-1.6-6-5.1-6-9.2c0-5.5,4.5-10,10-10c1.9,0,3.8,0.6,5.3,1.5C23.5,10,28.7,6,35,6c7.2,0,13.2,5.5,14,12.5c0.3,0,0.5,0,0.8,0c4.3,0,7.8,3.5,7.8,7.8c0,4.1-3.1,7.5-7.2,7.8h-4.5c-0.2,0-0.4-0.1-0.6-0.1c-1.7,0-3.1,1.4-3.1,3.1c0,1.6,1.3,3,2.9,3.1l0,0h5.3h0.3H51c3.5-0.3,6.7-1.9,9.1-4.5c2.4-2.6,3.7-6,3.7-9.5C63.7,20.2,59.6,14.9,53.9,13.1z M21.6,33c2.1,0,3.9,1.7,3.9,3.9c0,2.1-1.7,3.9-3.9,3.9c-2.1,0-3.9-1.7-3.9-3.9S19.5,33,21.6,33z" />
    <g>
      <path class="st0" d="M44.6,52.9H39l-1.4,10.4h5.9l0,0c0.5,0,0.9-0.4,0.9-0.9c0-0.5-0.4-0.9-0.9-0.9c0,0-3.7,0-3.7,0l0.4-2.8c0,0,3.7,0,3.8,0c0.5,0,0.9-0.4,0.9-0.9c0-0.5-0.3-0.9-0.8-0.9h-3.7l0.3-2.2c0,0,3.9,0,3.9,0c0.5,0,0.9-0.4,0.9-0.9C45.6,53.3,45.1,52.9,44.6,52.9z" />
      <path class="st0" d="M54.9,57.9c0-1-0.2-1.9-0.7-2.7c-0.5-0.8-1.1-1.4-1.9-1.7c-0.8-0.4-1.9-0.5-3.5-0.5h-1.7l-1.4,10.5H49c1.4,0,2.4-0.2,3.2-0.6c0.8-0.4,1.4-1,1.9-1.9C54.6,60,54.9,59,54.9,57.9z M52.3,60.1c-0.4,0.6-0.9,1-1.5,1.2c-0.5,0.2-1.2,0.2-2.2,0.2H48l0.9-6.8h0.5c0.8,0,1.4,0.1,1.9,0.4s0.9,0.6,1.1,1.1s0.4,1,0.4,1.7C52.9,58.8,52.7,59.5,52.3,60.1z" />
      <g>
        <path class="st0" d="M62.4,57.8l-1.1,0.6c-0.1,0.8-0.8,1.5-1.7,1.5c-0.9,0-1.7-0.7-1.7-1.6c0-0.9,0.7-1.6,1.7-1.6c0.4,0,0.7,0.1,0.9,0.3l1.4-0.8L61.2,53h-1.6l-5.5,10.3h2.1l1.2-2.2h4.1l0.6,2.2h1.9L62.4,57.8z" />
        <ellipse class="st0" cx="59.6" cy="58.3" rx="0.65" ry="0.65" />
      </g>
      <g>
        <path class="st0" d="M32.3,61.2c0.1,0.1,0.3,0.2,0.5,0.2h0c0.4,0,0.7-0.3,0.7-0.6l1-6.8H33l-0.9,6.7C32.1,60.9,32.1,61.1,32.3,61.2z" />
        <path class="st0" d="M33.9,62c0,0.1-0.1,0.2-0.2,0.3s-0.2,0.1-0.3,0.1h-0.9c-0.4,0-0.7,0.3-0.7,0.6v0c0,0.2,0,0.4,0.2,0.5c0.1,0.1,0.3,0.2,0.5,0.2h0.9c0.2,0,0.5-0.1,0.7-0.2c0.7-0.3,1.1-0.9,1.2-1.6l1.2-9.2h-1.4L33.9,62z" />
        <path class="st0" d="M31.8,56.3c0.2,0,0.3-0.2,0.3-0.3c0,0,0-0.1,0-0.1l0,0l-0.6-2l0,0c-0.2-0.4-0.3-0.7-0.6-0.9l0,0c-0.3-0.2-0.6-0.3-1.1-0.3h-1.6c-0.4,0-0.8,0.1-1.1,0.3s-0.6,0.5-0.8,0.8c0,0-0.8,1.3-1.2,2l0,0c0,0,0,0.1,0,0.2c0,0.2,0.2,0.3,0.3,0.3l0,0h1c0.1-0.1,0.2-0.2,0.2-0.4l0,0c0.2-0.5,0.6-1,0.8-1.4l0,0c0.1-0.1,0.2-0.2,0.2-0.3c0.1-0.1,0.2-0.1,0.3-0.1h1.6c0.1,0,0.2,0,0.3,0.1c0.1,0.1,0.1,0.1,0.2,0.2l0.6,1.9h1l0,0C31.8,56.3,31.8,56.3,31.8,56.3z" />
        <path class="st0" d="M30.2,56.7h-2.9c-0.4,0-0.8,0.2-1.1,0.5c-0.3,0.3-0.6,0.6-0.6,1L24.9,62c0,0.2,0,0.5,0,0.7c0.1,0.4,0.4,0.8,0.8,0.9c0.2,0.1,0.4,0.2,0.7,0.2h4c0.4,0,0.7-0.3,0.7-0.6v0c0-0.2,0-0.4-0.1-0.5c-0.1-0.1-0.3-0.2-0.5-0.2h-4.1c-0.1,0-0.2,0-0.2-0.1l0,0c0,0-0.1-0.1,0-0.2l0.7-3.8c0-0.1,0-0.1,0.1-0.2l0,0c0,0,0.1-0.1,0.2-0.1h2.9c0,0,0.1,0,0.1,0v0c0,0,0,0,0,0.1l-0.4,1.6c0,0.1-0.1,0.2-0.2,0.2h-1.3c-0.4,0-0.7,0.3-0.7,0.6v0c0,0.2,0,0.4,0.1,0.5c0.1,0.2,0.3,0.2,0.5,0.2h1.3c0,0,0.1,0,0.1,0c0,0,0.1,0,0.1,0c0.8,0,1.4-0.5,1.4-1.2c0.1-0.2,0.5-1.9,0.5-1.9c0-0.2,0-0.4,0-0.6C31.4,57.1,30.8,56.7,30.2,56.7z" />
      </g>
      <g>
        <path class="st0" d="M22.9,62.4h-9.8L13,63.5l0,0l0,0c0,0.2,0.2,0.3,0.3,0.3l0,0l0,0h9.5c0.3,0,0.7-0.3,0.7-0.6v0c0-0.2,0-0.4-0.2-0.5C23.2,62.5,23,62.4,22.9,62.4z" />
        <path class="st0" d="M20,62.1L20,62.1c0.1,0,0.2,0.1,0.2,0.1l0,0c0.3,0,0.5-0.2,0.6-0.4c0.7-1.6,1.3-4.1,1.9-6.1l0,0v0h-1.4c-0.6,1.9-1.1,4.2-1.7,5.7c-0.1,0.2-0.1,0.4,0,0.5C19.7,61.9,19.8,62,20,62.1z" />
        <path class="st0" d="M15.8,61.4c0.1,0.3,0.3,0.5,0.6,0.5c0.1,0,0.1,0,0.2,0l0,0c0.3-0.1,0.6-0.4,0.6-0.7l-0.6-5.6h-1.3l0,0L15.8,61.4L15.8,61.4z" />
        <path class="st0" d="M23.3,53.7h-3.5l0.2-1.2H19l0,0c0,0,0,0,0,0c-0.2,0-0.3,0.1-0.3,0.3l0,0l-0.2,0.9c0,0-4.2,0-4.2,0l-0.1,1c0,0,0,0,0,0.1c0,0.2,0.2,0.3,0.3,0.3l0,0c1.7,0,8.8,0,8.8,0c0.4,0,0.7-0.3,0.7-0.6l0,0c0-0.2,0-0.4-0.2-0.5S23.5,53.7,23.3,53.7z" />
      </g>
      <g>
        <path class="st0" d="M3.7,60.9h1.1c0.7,0,1,0.3,0.9,1l-0.2,0.9c-0.1,0.7-0.4,0.9-1.3,1H2.9v-0.9h0.9c0.4,0,0.5-0.1,0.6-0.3l0.1-0.3c0.1-0.2-0.1-0.4-0.5-0.4H3.3c-0.6,0.9-1.5,1.4-3,1.9L0,62.9c1-0.3,1.4-0.5,1.9-0.9H0.5l0.2-1h1.8c0,0,0-0.2,0.1-0.3c0-0.1,0.2-0.2,0.3-0.2h1.1L3.7,60.9z" />
        <path class="st0" d="M1.6,53.9l0.1-0.7h4.7l0.1-0.5c0-0.2,0.2-0.2,0.3-0.2H8l-0.1,0.7h4.2c0.3,0,0.6,0.3,0.5,0.6l0,0c0,0.2-0.2,0.4-0.5,0.4H7.7l-0.1,0.5h3.5c0.3,0,0.5,0.2,0.4,0.5l0,0c0,0.2-0.2,0.4-0.4,0.4H2.4c-0.2,0-0.3-0.2-0.3-0.3l0.1-0.5h4l0.1-0.5H1.9C1.7,54.3,1.5,54.1,1.6,53.9z" />
        <path class="st0" d="M11.3,59.2H9.1c0,0,0.1-0.1,0.1-0.2c0.1-0.2,0.2-0.3,0.2-0.4h0.5c0.8,0,1.3-0.3,1.3-1l0.1-0.6c0.1-0.6-0.2-0.9-0.9-0.9H2.9c-0.6,0-1,0.3-1.1,1l-0.1,0.6c-0.1,0.6,0.2,0.9,0.9,0.9H3c0,0.2,0.1,0.3,0.1,0.4c0,0.1,0.1,0.1,0.1,0.2H0.6l-0.1,0.6c0,0.2,0.1,0.3,0.3,0.3h10.5c0.2,0,0.4-0.2,0.5-0.4C11.8,59.4,11.6,59.2,11.3,59.2z M3,57.4l0-0.2C3.1,57,3.2,57,3.4,57h6.2c0.2,0,0.3,0.1,0.3,0.2l0,0.2c0,0.2-0.2,0.4-0.4,0.4H3.3C3.1,57.8,3,57.7,3,57.4z M7.6,59c0,0.1-0.1,0.1-0.1,0.2H4.7c0,0-0.1-0.1-0.1-0.2c0-0.2-0.1-0.3-0.1-0.4h3.3C7.8,58.8,7.7,58.9,7.6,59z" />
        <path class="st0" d="M10.5,60.7H7.8c-0.7,0-1.1,0.3-1.2,1l-0.2,1.2c-0.2,0.6,0.1,0.9,0.9,0.9h2.6c0.8,0,1.1-0.3,1.3-1l0.2-1.1C11.4,61,11.1,60.7,10.5,60.7z M9.9,62l-0.1,0.4c0,0.3-0.2,0.4-0.4,0.4H8.2c-0.3,0-0.5-0.1-0.4-0.4l0.1-0.4c0-0.3,0.2-0.4,0.5-0.4h1.3C9.8,61.7,9.9,61.8,9.9,62z" />
      </g>
    </g>
  </g>
</svg>
